<?xml version="1.0" encoding="UTF-8"?>
<svg version="1.1" xmlns="http://www.w3.org/2000/svg" width="350" height="402">
<path d="M0 0 C0 0.66 0 1.32 0 2 C1.28648437 2.10183594 2.57296875 2.20367188 3.8984375 2.30859375 C9.08236116 2.89100018 13.73010306 4.30339641 18.625 6.0625 C19.92824219 6.52668335 19.92824219 6.52668335 21.2578125 7.00024414 C33.89076226 11.64354985 44.97813738 18.32791916 56 26 C56.99 26.66 57.98 27.32 59 28 C59 28.66 59 29.32 59 30 C59.59603027 30.27295898 60.19206055 30.54591797 60.80615234 30.82714844 C80.36151044 41.28162655 94.84968415 70.1023425 101.4375 90.0625 C106.26076651 105.99225394 108.60451135 121.35389889 108.45410156 137.97753906 C108.45296902 139.77356948 108.45361485 141.56960174 108.45587158 143.3656311 C108.45700381 148.17024742 108.43374066 152.97445174 108.40557575 157.77897358 C108.38030904 162.82640216 108.37820043 167.87384361 108.37347412 172.92132568 C108.36111772 182.44764441 108.32839705 191.97377615 108.28807616 201.50001311 C108.243128 212.35876858 108.22131387 223.2175337 108.20129442 234.07635927 C108.15965661 256.38434326 108.08944966 278.69215978 108 301 C106.08960368 301.00615105 104.17920159 301.01052687 102.26879883 301.01416016 C100.6730175 301.01810287 100.6730175 301.01810287 99.04499817 301.02212524 C79.36372764 300.87911927 60.03269159 295.40307466 41.88671875 288.1015625 C39.20353004 286.88115967 39.20353004 286.88115967 37 287 C36.74041504 287.58177002 36.48083008 288.16354004 36.21337891 288.76293945 C34.9117431 291.16271589 33.47456021 292.82663214 31.5859375 294.79296875 C30.91062988 295.50203369 30.23532227 296.21109863 29.53955078 296.94165039 C28.82524902 297.68278076 28.11094727 298.42391113 27.375 299.1875 C25.92078978 300.70990163 24.46765346 302.23332982 23.015625 303.7578125 C22.32017578 304.48774414 21.62472656 305.21767578 20.90820312 305.96972656 C17.96317614 309.10315087 15.15462618 312.34126177 12.3828125 315.62890625 C11 317 11 317 9 317 C8.79673096 317.52706543 8.59346191 318.05413086 8.3840332 318.59716797 C6.38817478 322.06219506 3.67348778 324.63167292 0.85546875 327.4453125 C-0.05473274 328.36194168 -0.05473274 328.36194168 -0.98332214 329.29708862 C-2.26603318 330.58553317 -3.55136045 331.87137772 -4.83911133 333.15478516 C-6.80376369 335.11627774 -8.75472323 337.09070929 -10.70507812 339.06640625 C-11.95491764 340.31851891 -13.2055431 341.56984765 -14.45703125 342.8203125 C-15.03741653 343.40990753 -15.61780182 343.99950256 -16.21577454 344.60696411 C-19.28461873 347.64128865 -21.75354869 349.75358102 -26 351 C-38 339 -38 339 -40.24194336 336.75585938 C-42.91301948 334.08691122 -45.58884321 331.42281844 -48.26583862 328.7598114 C-51.06726407 325.97186079 -53.86596106 323.18117767 -56.66455078 320.39038086 C-58.13370184 318.92626003 -59.60374897 317.46303779 -61.07470703 316.00073242 C-63.21628556 313.87139011 -65.35452332 311.73873984 -67.4921875 309.60546875 C-68.14033417 308.96248337 -68.78848083 308.31949799 -69.45626831 307.6570282 C-73.84244409 303.27138334 -77.96783197 298.71194918 -82 294 C-82.58127655 293.32402267 -83.1625531 292.64804535 -83.76144409 291.95158386 C-85.17697501 290.30335286 -86.58889678 288.65202328 -88 287 C-91.82191096 287.56510746 -95.12487244 288.82065584 -98.67138672 290.32373047 C-115.71308651 297.48705963 -133.86697341 301.04989599 -152.33203125 301.01171875 C-153.93075073 301.00918091 -153.93075073 301.00918091 -155.56176758 301.0065918 C-156.36638428 301.0044165 -157.17100098 301.00224121 -158 301 C-158.07029341 277.97219379 -158.12308734 254.94440544 -158.15543652 231.91651344 C-158.17086058 221.22262597 -158.19186414 210.52880543 -158.22631836 199.83496094 C-158.256358 190.50680409 -158.27560736 181.17869576 -158.28226548 171.85049188 C-158.28615323 166.91800384 -158.29519536 161.9856545 -158.31719017 157.05321121 C-158.33778628 152.39602217 -158.34378789 147.73902691 -158.33932304 143.08179665 C-158.34013804 141.38648609 -158.34596434 139.691168 -158.35761642 137.99589729 C-158.45545747 123.00609354 -156.73570756 108.52610214 -152.375 94.125 C-151.94510031 92.64849927 -151.51540516 91.17193896 -151.0859375 89.6953125 C-150.72757813 88.47585937 -150.36921875 87.25640625 -150 86 C-149.66097673 84.66810206 -149.32613169 83.33511311 -149 82 C-148.34 82 -147.68 82 -147 82 C-146.9175 81.34 -146.835 80.68 -146.75 80 C-145.76146107 76.0458443 -144.14741483 72.46827753 -142 69 C-141.01 68.505 -141.01 68.505 -140 68 C-139.855625 67.05125 -139.71125 66.1025 -139.5625 65.125 C-138.95342077 61.74122649 -138.4648458 61.1690643 -136 59 C-134.82425289 56.90010348 -134.82425289 56.90010348 -134 55 C-133.34 55 -132.68 55 -132 55 C-131.75378906 54.44699219 -131.50757813 53.89398438 -131.25390625 53.32421875 C-118.24397978 29.209246 -89.17600026 11.93385893 -63.6875 4.1875 C-42.74091751 -1.72591679 -21.54417036 -2.02768662 0 0 Z M-97 47 C-97.88171875 47.68707031 -98.7634375 48.37414062 -99.671875 49.08203125 C-121.09409818 66.73020505 -134.05195688 96.85701402 -137 124 C-140.85540826 172.54667136 -118.38345198 216.01552583 -88.7890625 252.9140625 C-86.95423181 255.05336291 -85.01876089 257.03459843 -83 259 C-80.24930822 257.06348069 -77.49957006 255.12561158 -74.75 253.1875 C-73.58404297 252.36668945 -73.58404297 252.36668945 -72.39453125 251.52929688 C-71.64042969 250.99755859 -70.88632813 250.46582031 -70.109375 249.91796875 C-69.41811523 249.43094482 -68.72685547 248.9439209 -68.01464844 248.44213867 C-67.34981445 247.96623291 -66.68498047 247.49032715 -66 247 C-65.25524414 246.48606689 -64.51048828 245.97213379 -63.74316406 245.44262695 C-62.88029785 244.72852661 -62.88029785 244.72852661 -62 244 C-62 243.34 -62 242.68 -62 242 C-61.11441406 241.59007812 -61.11441406 241.59007812 -60.2109375 241.171875 C-47.35494573 234.35774508 -35.73241848 219.29820421 -27 208 C-25.96006913 206.68845807 -24.91967011 205.37728726 -23.87890625 204.06640625 C-7.22297556 182.90657594 9.65463767 157.05242275 7.26171875 128.95556641 C6.11038978 120.35281913 1.84844389 113.60686587 -4.49609375 107.84765625 C-12.70297045 101.79172383 -22.04675082 100.75445373 -32 102 C-40.88898297 104.20370496 -46.89206792 108.41810563 -52 116 C-58.83307656 128.27164769 -58.00364313 141.17822811 -54.453125 154.4296875 C-50.90991774 166.29686427 -44.94512797 177.62559909 -37.56762695 187.54956055 C-36.45703125 189.1171875 -36.45703125 189.1171875 -35 192 C-35.81392599 196.39250969 -38.63835114 199.11251908 -41.625 202.3125 C-42.44226563 203.19550781 -43.25953125 204.07851562 -44.1015625 204.98828125 C-44.72804688 205.65214844 -45.35453125 206.31601563 -46 207 C-48.36249449 206.61970975 -49.67149408 206.34896255 -51.33691406 204.57983398 C-51.92037598 203.67213257 -51.92037598 203.67213257 -52.515625 202.74609375 C-53.1794519 201.7243103 -53.1794519 201.7243103 -53.85668945 200.68188477 C-54.31648193 199.94123779 -54.77627441 199.20059082 -55.25 198.4375 C-55.73235107 197.67171631 -56.21470215 196.90593262 -56.71166992 196.11694336 C-64.81641562 183.04100019 -70.68665953 169.76635659 -75 155 C-75.268125 154.11183594 -75.53625 153.22367188 -75.8125 152.30859375 C-79.71369512 136.73090491 -77.39238488 120.02004028 -70 106 C-70 105.01 -70 104.02 -70 103 C-69.34 102.67 -68.68 102.34 -68 102 C-65.61872677 99.34673148 -65.61872677 99.34673148 -65 96 C-64.01 95.67 -63.02 95.34 -62 95 C-60.83071009 94.13500722 -59.68754221 93.23430878 -58.5625 92.3125 C-48.65511252 84.72658523 -37.92761746 80.86517522 -25.5625 80.1875 C-24.75490234 80.12369141 -23.94730469 80.05988281 -23.11523438 79.99414062 C-17.3639569 79.66509896 -13.20323418 80.59261439 -8 83 C-6.84757813 83.49757812 -5.69515625 83.99515625 -4.5078125 84.5078125 C8.75422238 90.84786151 18.30955595 99.15086723 24 113 C26.58354192 120.4149317 27.52182104 127.3603663 27.4375 135.1875 C27.42614014 136.68796875 27.42614014 136.68796875 27.41455078 138.21875 C26.88735079 162.20057712 15.20636306 186.04749307 1 205 C0.39800781 205.85464844 -0.20398438 206.70929688 -0.82421875 207.58984375 C-6.13307198 215.09546383 -11.98102738 222.06392789 -18 229 C-18.79917847 229.93162964 -18.79917847 229.93162964 -19.61450195 230.88208008 C-30.5564077 243.54961329 -42.44428788 255.16450685 -56 265 C-56.64759277 265.47115234 -57.29518555 265.94230469 -57.96240234 266.42773438 C-61.95132008 269.31928955 -65.96505422 272.1730851 -70 275 C-65.40525596 280.39882424 -60.72323727 285.71333087 -56 291 C-42.7719837 281.3348305 -30.53983149 270.61356843 -19 259 C-18.14921875 258.17242187 -17.2984375 257.34484375 -16.421875 256.4921875 C-10.99648295 251.17784149 -5.98277154 245.76110328 -1.24609375 239.80859375 C1.11104759 236.86114223 3.55111244 233.9964999 6 231.125 C29.629256 202.74798005 49.47426276 165.84419251 47 128 C44.80941213 108.22538079 36.71020893 89.77213276 21 77 C4.42174108 64.67309827 -14.22147537 58.99533692 -34.890625 61.46484375 C-54.20288837 64.40387024 -69.66824471 73.42439815 -81.71484375 88.7421875 C-94.78216126 107.37149144 -99.67282394 128.75293094 -95.8125 151.3125 C-91.4719694 174.59660684 -81.02723798 194.41386464 -68 214 C-67.43974121 214.84272461 -66.87948242 215.68544922 -66.30224609 216.55371094 C-64.87031266 218.70391998 -63.43628318 220.85269495 -62 223 C-70.8533946 232.05130282 -70.8533946 232.05130282 -75 235 C-77.60938789 234.80558879 -78.6830833 234.33463867 -80.48876953 232.42797852 C-80.94880371 231.75178467 -81.40883789 231.07559082 -81.8828125 230.37890625 C-82.40552734 229.61690918 -82.92824219 228.85491211 -83.46679688 228.06982422 C-84.28760742 226.82869873 -84.28760742 226.82869873 -85.125 225.5625 C-85.69541016 224.71445801 -86.26582031 223.86641602 -86.85351562 222.99267578 C-91.97181432 215.27090727 -96.52344095 207.28350127 -100.8659668 199.10571289 C-102.49250884 196.0854922 -104.19517278 193.10889434 -105.8996582 190.13208008 C-107.73653322 186.57285454 -108.84610903 182.82184696 -110 179 C-110.31453125 178.09507812 -110.6290625 177.19015625 -110.953125 176.2578125 C-112.19387058 172.39668632 -113.14442782 168.51055947 -114.0625 164.5625 C-114.23587891 163.83740234 -114.40925781 163.11230469 -114.58789062 162.36523438 C-119.51429407 141.35723808 -119.32772958 116.64777081 -110 97 C-109.35347919 95.43778434 -108.70759557 93.87530474 -108.0625 92.3125 C-106.23257017 88.17821408 -103.81833867 84.60057667 -101.171875 80.9453125 C-99.74199368 78.95021284 -99.74199368 78.95021284 -100 76 C-99.01 75.67 -98.02 75.34 -97 75 C-95.353524 73.37571904 -95.353524 73.37571904 -93.75 71.375 C-93.12609375 70.64796875 -92.5021875 69.9209375 -91.859375 69.171875 C-90.74470517 67.86986571 -89.6301 66.56780106 -88.515625 65.265625 C-75.53293056 51.21219287 -54.94180957 41.74064998 -35.91357422 40.71411133 C-32.27069892 40.58871334 -28.6319313 40.5776745 -24.98730469 40.60888672 C-22.73832523 40.62508408 -20.49111557 40.60888591 -18.2421875 40.58984375 C-10.69072922 40.57823101 -4.0080937 40.92675609 3 44 C4.23363281 44.43699219 5.46726563 44.87398437 6.73828125 45.32421875 C15.30891171 48.59323518 22.56041803 52.54285422 30 58 C30.80824219 58.57363281 31.61648437 59.14726563 32.44921875 59.73828125 C35.6410331 62.0476191 37.78678498 63.68017747 40 67 C40.66 67 41.32 67 42 67 C42.25265625 67.56589844 42.5053125 68.13179687 42.765625 68.71484375 C44.1646626 71.30483424 45.84385443 73.32019309 47.75 75.5625 C61.51564522 92.60804624 67.60851541 113.66628847 67.375 135.3125 C67.37001495 135.99519958 67.36502991 136.67789917 67.3598938 137.38128662 C67.27278046 147.56476138 66.83017739 157.15546211 64 167 C63.79020508 167.76296387 63.58041016 168.52592773 63.36425781 169.31201172 C57.78428673 189.20768268 48.16084032 207.51415686 36.20019531 224.31005859 C34.99774667 226.00317282 33.8214108 227.71214819 32.6484375 229.42578125 C21.54296994 245.49636762 8.72857476 260.54508335 -5.25 274.1875 C-8.23303921 276.58274727 -8.23303921 276.58274727 -8 279 C-8.56976563 279.23847656 -9.13953125 279.47695313 -9.7265625 279.72265625 C-12.4801136 281.26975455 -14.21438669 283.13309161 -16.375 285.4375 C-23.56863526 292.80241229 -31.76318968 298.85282383 -40 305 C-38.4722133 308.43752007 -36.49818944 311.18953688 -34 314 C-33.34 314 -32.68 314 -32 314 C-31.34 315.32 -30.68 316.64 -30 318 C-29.34 318 -28.68 318 -28 318 C-28 318.66 -28 319.32 -28 320 C-27.34 320 -26.68 320 -26 320 C-26 320.66 -26 321.32 -26 322 C-22.46183947 320.48968674 -20.16633853 318.42406644 -17.453125 315.71875 C-16.60878906 314.87699219 -15.76445312 314.03523438 -14.89453125 313.16796875 C-13.58548828 311.84732422 -13.58548828 311.84732422 -12.25 310.5 C-11.36183594 309.61957031 -10.47367187 308.73914063 -9.55859375 307.83203125 C-8.71941406 306.99027344 -7.88023437 306.14851563 -7.015625 305.28125 C-6.24508789 304.50845703 -5.47455078 303.73566406 -4.68066406 302.93945312 C-2.78170431 301.17581471 -2.78170431 301.17581471 -3 299 C-2.34 299 -1.68 299 -1 299 C0.56864082 297.4492093 0.56864082 297.4492093 2.1875 295.4375 C4.53279758 292.6746132 6.90829405 290.03320243 9.5 287.5 C14.36027279 282.71635313 19.12964484 277.6306673 23 272 C23 271.34 23 270.68 23 270 C23.60271729 269.73316406 24.20543457 269.46632813 24.82641602 269.19140625 C27.06281937 267.96556683 28.18756467 266.90344643 29.77734375 264.9375 C30.28402588 264.31512451 30.79070801 263.69274902 31.31274414 263.05151367 C32.11699829 262.0360144 32.11699829 262.0360144 32.9375 261 C33.7891272 259.93519409 33.7891272 259.93519409 34.65795898 258.84887695 C49.39757637 240.25018929 63.16412982 220.66981799 73 199 C73.30776367 198.32791504 73.61552734 197.65583008 73.93261719 196.96337891 C77.57245256 188.9059168 80.53515827 180.79668912 82.8125 172.25 C83.10483521 171.1530481 83.10483521 171.1530481 83.40307617 170.03393555 C91.91671741 136.13320897 87.26692647 101.85124706 69.4921875 71.8671875 C65.64471556 65.69090148 60.92948258 60.32678416 56 55 C55.32195312 54.25234375 54.64390625 53.5046875 53.9453125 52.734375 C34.506389 32.24687886 6.18735402 21.38927182 -21.75341797 20.6484375 C-50.27907838 20.39935042 -74.85752874 29.03932698 -97 47 Z M-137 218 C-137 238.13 -137 258.26 -137 279 C-123.17917895 276.1025606 -123.17917895 276.1025606 -110 272 C-108.515 271.505 -108.515 271.505 -107 271 C-106.01 270.505 -106.01 270.505 -105 270 C-104.67 269.01 -104.34 268.02 -104 267 C-105.67089815 264.50584911 -107.37938562 262.21242737 -109.25 259.875 C-118.3662002 248.10686323 -126.24872443 235.68474225 -133.44140625 222.66015625 C-134.87495699 219.95661587 -134.87495699 219.95661587 -137 218 Z M86 219 C85.60554688 219.81984375 85.21109375 220.6396875 84.8046875 221.484375 C76.06656647 238.50668869 64.46445477 253.76007149 53 269 C59.11841645 271.63879558 65.30462421 273.79255123 71.6875 275.6875 C72.39962646 275.90172607 73.11175293 276.11595215 73.84545898 276.33666992 C74.88682007 276.63988159 74.88682007 276.63988159 75.94921875 276.94921875 C76.56112061 277.12799561 77.17302246 277.30677246 77.8034668 277.4909668 C80.82977111 278.19229441 83.92471616 278.56067374 87 279 C87 259.2 87 239.4 87 219 C86.67 219 86.34 219 86 219 Z " fill="#101010" transform="translate(199,21)"/>
<path d="M0 0 C0.66 0.99 1.32 1.98 2 3 C1.27683594 3.61488281 1.27683594 3.61488281 0.5390625 4.2421875 C-0.09257812 4.78101563 -0.72421875 5.31984375 -1.375 5.875 C-2.00148437 6.40867188 -2.62796875 6.94234375 -3.2734375 7.4921875 C-4.55836651 8.61432007 -5.79371975 9.79371975 -7 11 C-10.73709471 14.46410794 -14.02253379 17.49167691 -19 19 C-12.66666667 12.66666667 -6.33333333 6.33333333 0 0 Z " fill="#6F6F6F" transform="translate(158,244)"/>
<path d="M0 0 C0.33 0.99 0.66 1.98 1 3 C-0.375 4.5 -0.375 4.5 -2 6 C-2.66 6 -3.32 6 -4 6 C-4.24492187 6.58265625 -4.48984375 7.1653125 -4.7421875 7.765625 C-6.20435874 10.36302236 -7.84740414 11.83975831 -10.125 13.75 C-11.21167969 14.67039062 -11.21167969 14.67039062 -12.3203125 15.609375 C-12.87460938 16.06828125 -13.42890625 16.5271875 -14 17 C-14.66 16.67 -15.32 16.34 -16 16 C-14.989375 15.175 -13.97875 14.35 -12.9375 13.5 C-9.43666524 10.51148252 -6.45150749 7.24251228 -3.48046875 3.734375 C-2 2 -2 2 0 0 Z " fill="#777777" transform="translate(187,272)"/>
<path d="M0 0 C0.33 1.32 0.66 2.64 1 4 C0.45730469 4.47050781 -0.08539063 4.94101562 -0.64453125 5.42578125 C-1.35996094 6.04839844 -2.07539063 6.67101562 -2.8125 7.3125 C-3.52019531 7.92738281 -4.22789062 8.54226563 -4.95703125 9.17578125 C-6.98244046 10.93276741 -6.98244046 10.93276741 -8.63671875 12.73046875 C-10 14 -10 14 -12 14 C-12 13.34 -12 12.68 -12 12 C-11.34 12 -10.68 12 -10 12 C-9.75507813 11.42765625 -9.51015625 10.8553125 -9.2578125 10.265625 C-7.78889901 7.61975598 -6.04651756 5.85146861 -3.875 3.75 C-3.15054688 3.04359375 -2.42609375 2.3371875 -1.6796875 1.609375 C-1.12539062 1.07828125 -0.57109375 0.5471875 0 0 Z " fill="#6E6E6E" transform="translate(208,308)"/>
<path d="M0 0 C0.33 1.32 0.66 2.64 1 4 C0.236875 4.598125 -0.52625 5.19625 -1.3125 5.8125 C-3.3483575 7.46959332 -5.1978279 9.10297674 -7 11 C-7.66 10.67 -8.32 10.34 -9 10 C-7.8758824 8.70756532 -6.75067408 7.41607925 -5.625 6.125 C-4.99851562 5.40570313 -4.37203125 4.68640625 -3.7265625 3.9453125 C-2.52573166 2.5923402 -1.2791655 1.2791655 0 0 Z " fill="#616161" transform="translate(83,56)"/>
<path d="M0 0 C0.66 0.99 1.32 1.98 2 3 C-0.31 4.65 -2.62 6.3 -5 8 C-3.95206337 3.80825346 -3.08236365 2.78407039 0 0 Z " fill="#464646" transform="translate(158,244)"/>
<path d="M0 0 C1.65 1.65 3.3 3.3 5 5 C4.01 5.99 3.02 6.98 2 8 C1.34 7.34 0.68 6.68 0 6 C0 4 0 2 0 0 Z " fill="#515151" transform="translate(133,238)"/>
<path d="M0 0 C0.66 0.33 1.32 0.66 2 1 C1.04882866 2.1725131 0.08882991 3.33787015 -0.875 4.5 C-1.40867188 5.1496875 -1.94234375 5.799375 -2.4921875 6.46875 C-2.98976562 6.9740625 -3.48734375 7.479375 -4 8 C-4.66 8 -5.32 8 -6 8 C-5.65120368 4.74456771 -4.97866739 3.98126893 -2.4375 1.75 C-1.633125 1.1725 -0.82875 0.595 0 0 Z " fill="#909090" transform="translate(139,113)"/>
<path d="M0 0 C2.97 0 5.94 0 9 0 C9.66 1.32 10.32 2.64 11 4 C7.37 3.01 3.74 2.02 0 1 C0 0.67 0 0.34 0 0 Z " fill="#727272" transform="translate(206,46)"/>
<path d="M0 0 C0.66 0.99 1.32 1.98 2 3 C-0.97 5.475 -0.97 5.475 -4 8 C-4.66 7.67 -5.32 7.34 -6 7 C-4.02 4.69 -2.04 2.38 0 0 Z " fill="#636363" transform="translate(167,234)"/>
<path d="M0 0 C0.33 0.66 0.66 1.32 1 2 C1.99 2.33 2.98 2.66 4 3 C3.67 4.32 3.34 5.64 3 7 C1.02 5.35 -0.96 3.7 -3 2 C-2.01 1.34 -1.02 0.68 0 0 Z " fill="#585858" transform="translate(221,96)"/>
<path d="M0 0 C0.33 0.66 0.66 1.32 1 2 C-0.32 3.65 -1.64 5.3 -3 7 C-3.99 6.67 -4.98 6.34 -6 6 C-4.02 4.02 -2.04 2.04 0 0 Z " fill="#585858" transform="translate(186,331)"/>
<path d="M0 0 C1.9375 0.75 1.9375 0.75 4 2 C4.8125 4 4.8125 4 5 6 C4.67 6.66 4.34 7.32 4 8 C0 2.25 0 2.25 0 0 Z " fill="#5A5A5A" transform="translate(69,250)"/>
<path d="M0 0 C-0.804375 0.28875 -1.60875 0.5775 -2.4375 0.875 C-5.1326468 1.73262568 -5.1326468 1.73262568 -6 4 C-8.475 3.01 -8.475 3.01 -11 2 C-7.00042393 -0.06874624 -4.43559483 -1.37656391 0 0 Z " fill="#767676" transform="translate(144,25)"/>
<path d="" fill="#FFFFFF" transform="translate(0,0)"/>
<path d="" fill="#FFFFFF" transform="translate(0,0)"/>
<path d="" fill="#FFFFFF" transform="translate(0,0)"/>
<path d="" fill="#FFFFFF" transform="translate(0,0)"/>
</svg>
