<?xml version="1.0" encoding="UTF-8"?>
<svg version="1.1" xmlns="http://www.w3.org/2000/svg" width="363" height="406">
<path d="M0 0 C1.77252323 0.48166878 3.55560295 0.92404632 5.33935547 1.36230469 C14.33019976 3.78505383 22.18018654 8.10058727 30.2421875 12.65014648 C32.10352 13.66785775 32.10352 13.66785775 34.93701172 14.52636719 C34.93701172 15.18636719 34.93701172 15.84636719 34.93701172 16.52636719 C35.78908203 16.74421875 36.64115234 16.96207031 37.51904297 17.18652344 C41.66065824 18.81003663 44.33814732 21.03004174 47.62451172 23.96386719 C48.22666504 24.49157715 48.82881836 25.01928711 49.44921875 25.56298828 C55.15672957 30.61709375 60.90291436 35.7936604 65.93701172 41.52636719 C65.93701172 42.18636719 65.93701172 42.84636719 65.93701172 43.52636719 C66.92701172 43.85636719 67.91701172 44.18636719 68.93701172 44.52636719 C70.51513672 46.64355469 70.51513672 46.64355469 72.18701172 49.40136719 C72.79673828 50.39523438 73.40646484 51.38910156 74.03466797 52.41308594 C74.97632813 53.95416016 74.97632813 53.95416016 75.93701172 55.52636719 C77.16360172 57.42386862 78.39268185 59.3197632 79.62451172 61.21386719 C88.73259965 75.56723791 93.94300008 91.35496165 96.62451172 108.08886719 C96.80348999 109.20249634 96.80348999 109.20249634 96.98608398 110.33862305 C98.72527539 121.94958053 99.08455965 133.56250653 99.06640625 145.28662109 C99.06776537 146.71582076 99.06954816 148.14502008 99.07171631 149.57421875 C99.07623237 153.41758619 99.07452465 157.26092645 99.07133722 161.1042943 C99.06878028 165.15793963 99.07116063 169.21158284 99.07272339 173.26522827 C99.07453668 180.07542329 99.0721622 186.88560742 99.06738281 193.69580078 C99.06195497 201.5192797 99.06369549 209.34273249 99.06920922 217.16621077 C99.07378016 223.92765035 99.0743712 230.68908216 99.07177055 237.45052278 C99.07022781 241.46896883 99.06995774 245.48740271 99.07330704 249.50584793 C99.08490121 265.53407878 99.09046676 281.5300915 97.93701172 297.52636719 C76.47584358 297.85967045 58.47988074 293.94640265 38.26123047 287.11230469 C37.11787231 286.72631104 37.11787231 286.72631104 35.95141602 286.33251953 C33.93701172 285.52636719 33.93701172 285.52636719 30.93701172 283.52636719 C28.08921834 283.68170137 27.04614371 284.42328608 24.96435547 286.38964844 C23.92988281 287.60201172 23.92988281 287.60201172 22.87451172 288.83886719 C22.08560547 289.74507813 21.29669922 290.65128906 20.48388672 291.58496094 C19.64341797 292.555625 18.80294922 293.52628906 17.93701172 294.52636719 C16.17394498 296.49266168 14.40630699 298.45227919 12.62451172 300.40136719 C11.94134888 301.14978882 11.94134888 301.14978882 11.24438477 301.91333008 C6.92761388 306.60514621 2.41650509 311.08509466 -2.14111328 315.54199219 C-4.31717505 317.71286138 -6.34317824 319.97417789 -8.34814453 322.30371094 C-12.4387547 327.02847212 -16.82214698 331.4324303 -21.25048828 335.83886719 C-22.04390625 336.63615234 -22.83732422 337.4334375 -23.65478516 338.25488281 C-24.80624023 339.4044043 -24.80624023 339.4044043 -25.98095703 340.57714844 C-26.66955811 341.26462158 -27.35815918 341.95209473 -28.06762695 342.66040039 C-29.97630282 344.44530308 -31.94212765 346.00315778 -34.06298828 347.52636719 C-39.2491555 345.33221952 -43.24668267 341.65530241 -46.75048828 337.33886719 C-48.93970554 334.39881963 -48.93970554 334.39881963 -52.06298828 332.52636719 C-52.06298828 331.86636719 -52.06298828 331.20636719 -52.06298828 330.52636719 C-52.72298828 330.52636719 -53.38298828 330.52636719 -54.06298828 330.52636719 C-54.06298828 329.86636719 -54.06298828 329.20636719 -54.06298828 328.52636719 C-54.72298828 328.52636719 -55.38298828 328.52636719 -56.06298828 328.52636719 C-57.35229492 327.21142578 -57.35229492 327.21142578 -58.91064453 325.29980469 C-62.11004201 321.53551489 -65.48303115 318.0315872 -68.99658203 314.56542969 C-69.52305328 314.0446283 -70.04952454 313.5238269 -70.59194946 312.98724365 C-72.78839233 310.81786109 -74.98898147 308.65276925 -77.19360352 306.49169922 C-78.81973747 304.8955782 -80.43974723 303.29344396 -82.05908203 301.69042969 C-82.56209335 301.20087799 -83.06510468 300.71132629 -83.58335876 300.2069397 C-84.78160821 299.01753182 -85.92782191 297.77612323 -87.06298828 296.52636719 C-87.06298828 295.86636719 -87.06298828 295.20636719 -87.06298828 294.52636719 C-88.05298828 294.19636719 -89.04298828 293.86636719 -90.06298828 293.52636719 C-91.68830476 291.72700991 -93.24377072 289.86364151 -94.75048828 287.96386719 C-95.96285156 286.44599609 -95.96285156 286.44599609 -97.19970703 284.89746094 C-97.81458984 284.115 -98.42947266 283.33253906 -99.06298828 282.52636719 C-100.16513672 283.11289062 -101.26728516 283.69941406 -102.40283203 284.30371094 C-121.97634208 294.0711118 -145.30792568 298.28557557 -167.06298828 297.52636719 C-168.67844262 295.91091285 -168.22856128 294.13371996 -168.26831055 291.89794922 C-168.29821327 290.40001831 -168.29821327 290.40001831 -168.32872009 288.87182617 C-168.34544266 287.77040283 -168.36216522 286.66897949 -168.37939453 285.53417969 C-168.40026627 284.38812256 -168.421138 283.24206543 -168.44264221 282.0612793 C-168.50957292 278.25804943 -168.56821422 274.45475411 -168.62548828 270.65136719 C-168.64633484 269.34020935 -168.6671814 268.02905151 -168.68865967 266.67816162 C-169.27362819 229.76829124 -169.202682 192.87157843 -168.74359131 155.96087646 C-168.70624016 152.95752591 -168.67237798 149.95417017 -168.6416626 146.95074463 C-168.22686088 107.45090246 -168.22686088 107.45090246 -163.75048828 93.71386719 C-163.42238159 92.66126709 -163.42238159 92.66126709 -163.08764648 91.58740234 C-158.00196348 75.63925477 -150.50685365 60.63714818 -140.06298828 47.52636719 C-139.65177734 47.0083252 -139.24056641 46.4902832 -138.81689453 45.95654297 C-130.6038205 35.69324682 -121.34546628 25.48248144 -110.06298828 18.52636719 C-109.40298828 18.52636719 -108.74298828 18.52636719 -108.06298828 18.52636719 C-108.06298828 17.86636719 -108.06298828 17.20636719 -108.06298828 16.52636719 C-74.71215786 -2.40248251 -37.6911579 -10.24284253 0 0 Z M-80.06298828 26.52636719 C-81.21154297 27.04070313 -82.36009766 27.55503906 -83.54345703 28.08496094 C-91.89916023 32.03045656 -98.88576514 36.73966418 -106.06298828 42.52636719 C-107.00013672 43.2340625 -107.93728516 43.94175781 -108.90283203 44.67089844 C-109.61568359 45.28320312 -110.32853516 45.89550781 -111.06298828 46.52636719 C-111.06298828 47.18636719 -111.06298828 47.84636719 -111.06298828 48.52636719 C-111.61728516 48.74164063 -112.17158203 48.95691406 -112.74267578 49.17871094 C-128.72781155 58.46300696 -138.01897152 82.86217529 -143.06298828 99.52636719 C-143.28744629 100.25984375 -143.5119043 100.99332031 -143.74316406 101.74902344 C-153.34421925 134.70061115 -146.13549326 172.05027364 -130.12939453 201.79199219 C-129.44176638 203.03743273 -128.75293582 204.28221004 -128.06298828 205.52636719 C-127.32181592 206.89600362 -126.58093742 208.2657991 -125.84033203 209.63574219 C-116.88761687 226.02271802 -106.12732588 241.27853887 -94.06298828 255.52636719 C-86.82075746 251.45839073 -80.42699041 246.84983174 -74.06298828 241.52636719 C-73.08716797 240.73617187 -72.11134766 239.94597656 -71.10595703 239.13183594 C-58.89894856 229.1564212 -45.73643559 217.82184892 -37.06298828 204.52636719 C-37.06298828 203.86636719 -37.06298828 203.20636719 -37.06298828 202.52636719 C-36.40298828 202.52636719 -35.74298828 202.52636719 -35.06298828 202.52636719 C-17.76828309 182.20405173 -2.24492214 154.22904127 -2.76220703 127.13964844 C-3.60094065 117.06395233 -8.66748035 110.2006603 -16.06298828 103.52636719 C-18.63075561 101.74386454 -21.11451045 100.54450424 -24.06298828 99.52636719 C-25.01625 99.17638672 -25.01625 99.17638672 -25.98876953 98.81933594 C-34.07034523 96.30902685 -42.06083014 97.91376913 -49.67626953 101.23730469 C-57.27387363 105.34075698 -62.54373791 111.48016629 -65.84423828 119.40136719 C-70.74965511 135.9248765 -64.33348855 154.74928869 -56.68798828 169.33886719 C-54.82135786 172.64846585 -52.85682285 175.86478678 -50.77001953 179.03808594 C-50.39216309 179.62162842 -50.01430664 180.2051709 -49.625 180.80639648 C-48.56048028 182.43460782 -47.46682941 184.04366461 -46.37158203 185.65136719 C-45.06298828 188.52636719 -45.06298828 188.52636719 -45.52783203 191.03808594 C-47.43217988 194.12477697 -49.69673534 196.72549401 -52.18798828 199.33886719 C-52.65591797 199.84095703 -53.12384766 200.34304687 -53.60595703 200.86035156 C-54.75200653 202.08826174 -55.90664139 203.30814934 -57.06298828 204.52636719 C-61.0945838 200.7812083 -64.00709054 196.8966267 -66.87548828 192.21386719 C-67.30490723 191.51817627 -67.73432617 190.82248535 -68.17675781 190.10571289 C-74.60454976 179.52232849 -80.46585999 168.41253023 -84.06298828 156.52636719 C-84.36076172 155.58277344 -84.65853516 154.63917969 -84.96533203 153.66699219 C-89.50490885 137.1822616 -88.64685131 118.02474803 -80.53564453 102.81933594 C-78.47599728 99.61240507 -76.05525855 96.86374009 -73.41845703 94.12011719 C-71.84703322 92.62115019 -71.84703322 92.62115019 -72.06298828 90.52636719 C-71.22767578 90.15511719 -71.22767578 90.15511719 -70.37548828 89.77636719 C-67.98682294 88.5893312 -67.98682294 88.5893312 -65.93798828 86.71386719 C-55.97078549 79.13012593 -42.5985332 74.9257022 -30.06298828 76.52636719 C-14.64356129 79.5156756 -1.51888604 85.60982211 7.74951172 98.65136719 C8.83300193 100.26244764 9.89618784 101.88739895 10.93701172 103.52636719 C11.42959473 104.28788086 11.92217773 105.04939453 12.4296875 105.83398438 C17.12431712 114.21953272 17.46176399 124.00674111 17.37451172 133.40136719 C17.36766357 134.54178467 17.36081543 135.68220215 17.35375977 136.85717773 C17.19052089 145.42935858 16.09459221 152.51177751 12.93701172 160.52636719 C12.62119141 161.51121094 12.30537109 162.49605469 11.97998047 163.51074219 C6.80621383 178.78013586 -2.42138516 192.93162909 -12.10205078 205.71386719 C-13.89711026 208.28845448 -15.05230106 210.57037876 -16.06298828 213.52636719 C-16.72298828 213.52636719 -17.38298828 213.52636719 -18.06298828 213.52636719 C-20.46119133 216.16321466 -20.46119133 216.16321466 -21.06298828 219.52636719 C-21.72298828 219.52636719 -22.38298828 219.52636719 -23.06298828 219.52636719 C-24.49765845 220.90594135 -24.49765845 220.90594135 -26.00048828 222.77636719 C-29.13427051 226.45316387 -32.3123394 230.07787229 -35.56298828 233.65136719 C-36.03381836 234.16908691 -36.50464844 234.68680664 -36.98974609 235.22021484 C-39.6053207 238.05844956 -42.27757726 240.69102703 -45.25048828 243.15136719 C-46.17861328 243.93511719 -47.10673828 244.71886719 -48.06298828 245.52636719 C-48.06298828 246.18636719 -48.06298828 246.84636719 -48.06298828 247.52636719 C-48.61728516 247.76226562 -49.17158203 247.99816406 -49.74267578 248.24121094 C-52.6274607 249.83901268 -54.7747086 251.84487728 -57.18798828 254.08886719 C-61.86854384 258.42914497 -61.86854384 258.42914497 -64.06298828 259.52636719 C-64.06298828 260.18636719 -64.06298828 260.84636719 -64.06298828 261.52636719 C-64.77841797 261.78160156 -65.49384766 262.03683594 -66.23095703 262.29980469 C-69.26545446 263.61405599 -71.69487739 265.22132734 -74.37548828 267.15136719 C-75.25849609 267.78300781 -76.14150391 268.41464844 -77.05126953 269.06542969 C-78.04707031 269.78859375 -78.04707031 269.78859375 -79.06298828 270.52636719 C-77.63437909 275.01745471 -75.13221536 277.98806035 -71.93798828 281.33886719 C-71.23609375 282.09200195 -71.23609375 282.09200195 -70.52001953 282.86035156 C-69.37397003 284.08826174 -68.21933517 285.30814934 -67.06298828 286.52636719 C-63.51779944 285.12876814 -63.51779944 285.12876814 -60.06298828 283.52636719 C-60.06298828 282.86636719 -60.06298828 282.20636719 -60.06298828 281.52636719 C-59.34755859 281.29304688 -58.63212891 281.05972656 -57.89501953 280.81933594 C-54.54338221 279.28914014 -52.42566379 277.3669274 -49.75048828 274.83886719 C-48.86748047 274.01 -47.98447266 273.18113281 -47.07470703 272.32714844 C-46.60025146 271.88032715 -46.1257959 271.43350586 -45.63696289 270.97314453 C-43.8892984 269.36671367 -42.09662882 267.82083823 -40.29736328 266.27246094 C-28.58537571 256.0679432 -17.54427237 244.83261488 -8.06298828 232.52636719 C-7.10676015 231.35560722 -6.14684891 230.18784975 -5.18408203 229.02246094 C1.5087202 220.8857613 7.5249346 212.56601246 12.93701172 203.52636719 C13.2821582 202.95031738 13.62730469 202.37426758 13.98291016 201.78076172 C30.23533621 174.42632633 42.56700044 143.78580135 34.93701172 111.52636719 C28.79553089 91.87362854 17.26307322 75.52907056 -1.12182617 65.70776367 C-9.96261481 61.17387355 -19.08584667 58.11325787 -29.06298828 57.52636719 C-30.55185547 57.4296875 -30.55185547 57.4296875 -32.07080078 57.33105469 C-50.44901754 56.7030974 -68.93431928 62.42721792 -82.62548828 74.96386719 C-94.67243241 86.60865219 -103.15676955 100.8907703 -106.06298828 117.52636719 C-106.19189453 118.21730469 -106.32080078 118.90824219 -106.45361328 119.62011719 C-111.75391284 153.65361962 -95.14490317 186.60161022 -76.06298828 213.52636719 C-75.45326172 214.23921875 -74.84353516 214.95207031 -74.21533203 215.68652344 C-73.06298828 217.52636719 -73.06298828 217.52636719 -73.07470703 219.48339844 C-74.48200719 222.39256043 -76.46409242 224.07785767 -78.87548828 226.21386719 C-79.74818359 227.00148437 -80.62087891 227.78910156 -81.52001953 228.60058594 C-83.85552585 230.36925662 -85.20990745 231.13398544 -88.06298828 231.52636719 C-103.08922864 212.45050177 -116.5558628 190.02112113 -123.06298828 166.52636719 C-123.49998047 165.19605469 -123.49998047 165.19605469 -123.94580078 163.83886719 C-131.78304389 138.88143283 -129.19232987 110.05080158 -117.14453125 86.96435547 C-107.17495581 68.68602514 -93.3637268 55.17326811 -75.06298828 45.52636719 C-74.44464111 45.18766602 -73.82629395 44.84896484 -73.18920898 44.5 C-55.07189469 34.89476804 -30.88199259 33.44423165 -11.23681641 38.84521484 C0.85735064 42.63482918 12.11020439 47.71852414 21.85498047 55.87402344 C23.75510773 57.7335817 23.75510773 57.7335817 25.93701172 57.52636719 C26.16388672 58.10386719 26.39076172 58.68136719 26.62451172 59.27636719 C28.26617279 62.09064332 30.37260224 63.55374451 32.93701172 65.52636719 C33.26701172 66.18636719 33.59701172 66.84636719 33.93701172 67.52636719 C34.59701172 67.52636719 35.25701172 67.52636719 35.93701172 67.52636719 C36.92701172 70.00136719 36.92701172 70.00136719 37.93701172 72.52636719 C38.59701172 72.52636719 39.25701172 72.52636719 39.93701172 72.52636719 C40.18451172 73.22761719 40.43201172 73.92886719 40.68701172 74.65136719 C41.87181163 77.60827048 41.87181163 77.60827048 43.81201172 80.33886719 C57.86339377 101.41594027 60.15664457 128.18918901 55.93701172 152.52636719 C55.81583984 153.46867188 55.69466797 154.41097656 55.56982422 155.38183594 C53.29250082 172.22938153 46.15540679 186.85702609 37.93701172 201.52636719 C37.51218506 202.30165771 37.0873584 203.07694824 36.6496582 203.87573242 C33.75096514 209.15846953 30.6109039 214.21050931 27.29248047 219.24121094 C25.7669567 221.37023902 25.7669567 221.37023902 25.93701172 223.52636719 C25.27701172 223.52636719 24.61701172 223.52636719 23.93701172 223.52636719 C22.30271421 225.62086399 20.79533938 227.7041881 19.31201172 229.90136719 C18.68166016 230.80628906 18.68166016 230.80628906 18.03857422 231.72949219 C15.70340849 234.8435059 15.70340849 234.8435059 14.93701172 238.52636719 C13.94701172 238.85636719 12.95701172 239.18636719 11.93701172 239.52636719 C10.38491096 241.24420299 10.38491096 241.24420299 8.87451172 243.40136719 C5.3591905 248.07607553 1.53279372 252.36447776 -2.43798828 256.65527344 C-4.4508657 258.85685811 -6.41178645 261.08117142 -8.35986328 263.33886719 C-12.17911207 267.71603597 -16.20411073 271.85919428 -20.31298828 275.96386719 C-21.05444092 276.70523926 -21.79589355 277.44661133 -22.55981445 278.21044922 C-28.77211735 284.35869385 -35.17636555 290.11322354 -42.35595703 295.12792969 C-42.91927734 295.58941406 -43.48259766 296.05089844 -44.06298828 296.52636719 C-44.06298828 297.18636719 -44.06298828 297.84636719 -44.06298828 298.52636719 C-45.71298828 299.18636719 -47.36298828 299.84636719 -49.06298828 300.52636719 C-49.06298828 305.26248149 -48.28517554 305.90362946 -45.18798828 309.27636719 C-44.46869141 310.07558594 -43.74939453 310.87480469 -43.00830078 311.69824219 C-41.26500146 313.75463945 -41.26500146 313.75463945 -39.06298828 313.52636719 C-38.40298828 314.84636719 -37.74298828 316.16636719 -37.06298828 317.52636719 C-32.57593017 317.52636719 -31.87093195 316.79524179 -28.82524109 313.76745605 C-28.29912735 313.22383423 -27.77301361 312.6802124 -27.23095703 312.12011719 C-26.39870354 311.28293152 -26.39870354 311.28293152 -25.54963684 310.42883301 C-23.77371728 308.63715568 -22.01237932 306.83183006 -20.25048828 305.02636719 C-19.07622661 303.84061061 -17.90110504 302.65570493 -16.72509766 301.47167969 C-11.499171 296.1899256 -6.3532647 290.8772853 -1.52416992 285.22607422 C0.83815369 282.47812151 3.33352756 279.85661085 5.81201172 277.21386719 C10.23593798 272.45297157 14.4684875 267.59208908 18.53466797 262.51855469 C20.33551378 260.27554998 22.15419673 258.05591676 23.99560547 255.84667969 C31.54222598 246.75500211 38.46819919 237.41302992 44.93701172 227.52636719 C45.37142578 226.86636719 45.80583984 226.20636719 46.25341797 225.52636719 C55.58941074 211.25762599 62.90018272 196.45638759 68.93701172 180.52636719 C69.50742187 179.09550781 69.50742187 179.09550781 70.08935547 177.63574219 C81.7582089 147.51689032 79.70491633 112.51289039 67.07373047 83.19824219 C57.90933333 62.76641618 43.35339879 44.92397675 23.93701172 33.52636719 C23.36080078 33.18621582 22.78458984 32.84606445 22.19091797 32.49560547 C-8.63823159 14.5202223 -47.33970781 11.59922908 -80.06298828 26.52636719 Z M75.93701172 215.52636719 C75.64310547 216.11160156 75.34919922 216.69683594 75.04638672 217.29980469 C71.19333771 224.67374331 66.71632786 231.49042455 61.98876953 238.33056641 C61.48055664 239.0745166 60.97234375 239.8184668 60.44873047 240.58496094 C59.98942139 241.24810303 59.5301123 241.91124512 59.05688477 242.59448242 C57.90879082 244.57505085 57.37450733 246.28969034 56.93701172 248.52636719 C56.27701172 248.52636719 55.61701172 248.52636719 54.93701172 248.52636719 C53.52200913 250.04055677 53.52200913 250.04055677 52.11669922 252.02636719 C51.58173828 252.74824219 51.04677734 253.47011719 50.49560547 254.21386719 C49.94001953 254.97699219 49.38443359 255.74011719 48.81201172 256.52636719 C48.24869141 257.28949219 47.68537109 258.05261719 47.10498047 258.83886719 C45.70986229 260.73055285 44.320892 262.62645304 42.93701172 264.52636719 C46.63868662 267.82440201 50.81209168 269.0768741 55.43701172 270.58886719 C56.17693359 270.84474609 56.91685547 271.100625 57.67919922 271.36425781 C64.17561719 273.5204921 69.97989935 274.36684846 76.93701172 275.52636719 C76.93701172 255.72636719 76.93701172 235.92636719 76.93701172 215.52636719 C76.60701172 215.52636719 76.27701172 215.52636719 75.93701172 215.52636719 Z M-147.06298828 216.52636719 C-147.06298828 235.66636719 -147.06298828 254.80636719 -147.06298828 274.52636719 C-139.76643882 273.79671224 -134.6536652 272.9273955 -128.06298828 270.52636719 C-125.37991131 269.61717286 -122.69001557 268.72876811 -120.00048828 267.83886719 C-118.67615977 267.39779035 -117.35193234 266.95640984 -116.02783203 266.51464844 C-115.04943359 266.18851562 -114.07103516 265.86238281 -113.06298828 265.52636719 C-115.01070204 262.13126981 -117.10964652 259.14516637 -119.62548828 256.15136719 C-127.92014279 245.88900267 -134.7680695 234.58750911 -141.48413086 223.25292969 C-142.14191528 222.15464844 -142.14191528 222.15464844 -142.81298828 221.03417969 C-143.19970703 220.38078613 -143.58642578 219.72739258 -143.98486328 219.05419922 C-144.99910742 217.36124496 -144.99910742 217.36124496 -147.06298828 216.52636719 Z " fill="#EDEDED" transform="translate(217.06298828125,28.4736328125)"/>
<path d="M0 0 C0.66 0 1.32 0 2 0 C2 21.12 2 42.24 2 64 C1.01 63.67 0.02 63.34 -1 63 C-1.02312737 54.93347826 -1.04091709 46.86697028 -1.05181217 38.80042362 C-1.05704014 35.05516963 -1.06413622 31.30993824 -1.07543945 27.56469727 C-1.08627141 23.95318313 -1.09227749 20.34169079 -1.09487724 16.73016167 C-1.09673094 15.34939671 -1.10035049 13.968633 -1.10573006 12.58787727 C-1.11294447 10.66024048 -1.11340809 8.73258193 -1.11352539 6.80493164 C-1.115746 5.70572891 -1.11796661 4.60652618 -1.12025452 3.47401428 C-1 1 -1 1 0 0 Z " fill="#7D7D7D" transform="translate(294,241)"/>
<path d="M0 0 C0.33 0.99 0.66 1.98 1 3 C-0.14453125 4.75390625 -0.14453125 4.75390625 -1.8125 6.5625 C-2.35519531 7.16191406 -2.89789063 7.76132813 -3.45703125 8.37890625 C-5.99636398 11.04681279 -7.37303535 12.27460707 -11 13 C-7.92877136 7.96318503 -4.27083334 4.05489233 0 0 Z " fill="#B8B8B8" transform="translate(120,88)"/>
<path d="M0 0 C0 5 0 5 -1.42578125 6.54296875 C-2.04839844 7.08566406 -2.67101562 7.62835938 -3.3125 8.1875 C-3.92738281 8.73792969 -4.54226562 9.28835938 -5.17578125 9.85546875 C-5.77777344 10.23316406 -6.37976563 10.61085938 -7 11 C-7.99 10.67 -8.98 10.34 -10 10 C-6.7 6.7 -3.4 3.4 0 0 Z " fill="#A7A7A7" transform="translate(200,329)"/>
<path d="M0 0 C0.33 0 0.66 0 1 0 C1.08685287 3.29150125 1.14033895 6.5827096 1.1875 9.875 C1.21263672 10.81214844 1.23777344 11.74929687 1.26367188 12.71484375 C1.27333984 13.61074219 1.28300781 14.50664062 1.29296875 15.4296875 C1.3086792 16.25710449 1.32438965 17.08452148 1.34057617 17.93701172 C1.22818604 18.61779785 1.1157959 19.29858398 1 20 C0.01 20.66 -0.98 21.32 -2 22 C-1.855625 20.783125 -1.71125 19.56625 -1.5625 18.3125 C-0.88136774 12.2212315 -0.44401931 6.11235086 0 0 Z " fill="#656565" transform="translate(214,154)"/>
<path d="M0 0 C0 0.66 0 1.32 0 2 C-0.66 2 -1.32 2 -2 2 C-2.268125 2.598125 -2.53625 3.19625 -2.8125 3.8125 C-3.98493467 5.97224808 -5.19369282 7.35790256 -7 9 C-7 7 -7 5 -7 3 C-4.46815512 0.64276511 -3.52809907 0 0 0 Z " fill="#B9B9B9" transform="translate(274,275)"/>
<path d="M0 0 C0.33 0.66 0.66 1.32 1 2 C-0.98 4.31 -2.96 6.62 -5 9 C-5.99 8.67 -6.98 8.34 -8 8 C-5.33333333 5.33333333 -2.66666667 2.66666667 0 0 Z " fill="#959595" transform="translate(189,340)"/>
<path d="M0 0 C0.598125 0.350625 1.19625 0.70125 1.8125 1.0625 C-3.9375 4.0625 -3.9375 4.0625 -6.1875 4.0625 C-5.875 2.125 -5.875 2.125 -5.1875 0.0625 C-2.1875 -0.9375 -2.1875 -0.9375 0 0 Z " fill="#A2A2A1" transform="translate(139.1875,52.9375)"/>
<path d="M0 0 C0.99 0.33 1.98 0.66 3 1 C1.25 5.875 1.25 5.875 -1 7 C-2 4 -2 4 -2 1 C-1.34 0.67 -0.68 0.34 0 0 Z " fill="#C6C6C4" transform="translate(238,251)"/>
<path d="M0 0 C1 2 1 2 0.3125 4.5625 C-1 7 -1 7 -3.125 7.8125 C-3.74375 7.874375 -4.3625 7.93625 -5 8 C-3.8141763 4.62496331 -2.72426311 2.35277269 0 0 Z " fill="#A0A0A0" transform="translate(256,264)"/>
<path d="M0 0 C0.6875 1.8125 0.6875 1.8125 1 4 C-0.4375 5.75 -0.4375 5.75 -2 7 C-2.33 6.01 -2.66 5.02 -3 4 C-1.5625 1.8125 -1.5625 1.8125 0 0 Z " fill="#FAFAF8" transform="translate(253,270)"/>
<path d="M0 0 C3 3.75 3 3.75 3 6 C2.34 6 1.68 6 1 6 C0.67 6.66 0.34 7.32 0 8 C-0.98120464 4.94736336 -0.98120464 3.05263664 0 0 Z " fill="#B5B5B4" transform="translate(123,212)"/>
<path d="M0 0 C0.66 0.99 1.32 1.98 2 3 C0.25 6.875 0.25 6.875 -2 8 C-1.125 2.25 -1.125 2.25 0 0 Z " fill="#9E9E9E" transform="translate(96,122)"/>
</svg>
